<?xml version="1.0" encoding="UTF-8"?>
<svg width="23px" height="31px" viewBox="0 0 23 31" version="1.1" xmlns="http://www.w3.org/2000/svg" xmlns:xlink="http://www.w3.org/1999/xlink">
    <title>公安部第一研究所</title>
    <g id="产品手册" stroke="none" stroke-width="1" fill="none" fill-rule="evenodd">
        <path d="M11.5,-2.84217094e-14 C13.5458558,-2.84217094e-14 15.5031069,0.499193443 17.349721,1.48861668 L18.0415149,1.85928263 L18.1369221,2.62777636 C18.3469854,4.31981189 18.7835619,5.69155164 19.4306859,6.75121841 C20.0556555,7.77460729 20.7427277,8.44965651 21.4830391,8.81333486 L22.2091379,9.17003131 L22.3164288,9.96063222 C22.8710683,14.0476362 22.1692088,17.7713557 20.2062787,21.0774947 C18.3347773,24.2296412 15.7712873,27.2345794 12.5222348,30.0945574 L11.4936148,31 L10.4707204,30.0883175 L10.0274788,29.6932663 C6.98732238,26.9494583 4.57652933,24.0802561 2.79372135,21.0774947 C0.830791185,17.7713557 0.128931719,14.0476362 0.683571156,9.96063222 L0.790862083,9.17003131 L1.51696091,8.81333486 C2.25727225,8.44965651 2.94434448,7.77460729 3.56931409,6.75121841 C4.21643811,5.69155164 4.65301456,4.31981189 4.86307791,2.62777636 L4.95848511,1.85928263 L5.650279,1.48861668 C7.49689309,0.499193443 9.4541442,-2.84217094e-14 11.5,-2.84217094e-14 Z M11.5,1.50511917 C9.71275279,1.50511917 8.00733066,1.94008407 6.38373362,2.81001388 C6.14916094,4.69946921 5.64889305,6.27132986 4.88292995,7.52559583 C4.11696686,8.7798618 3.22334325,9.65784798 2.20205913,10.1595544 C1.69141707,13.9223523 2.32971965,17.3088704 4.11696686,20.3191087 C5.81910707,23.1860024 8.13237093,25.9391304 11.0567584,28.5784928 L11.5,28.9735439 C14.6347749,26.2141588 17.0957859,23.3293471 18.8830331,20.3191087 C20.6702804,17.3088704 21.3085829,13.9223523 20.7979409,10.1595544 C19.7766567,9.65784798 18.8830331,8.7798618 18.11707,7.52559583 C17.351107,6.27132986 16.8508391,4.69946921 16.6162664,2.81001388 C14.9926693,1.94008407 13.2872472,1.50511917 11.5,1.50511917 Z M11.9720772,2.72111325 C15.7954664,2.72111325 17.1323307,6.60773179 16.5589878,8.02536404 C15.9856448,9.4429963 15.8303703,7.12172713 15.0965381,6.07781698 C14.362706,5.03390684 13.2449676,4.73709196 12.8440491,5.73344915 C12.4431307,6.72980633 16.5414505,13.8509137 16.3827136,18.0921646 C16.2239767,22.3334156 15.2597272,24.9385333 11.7389547,25.3702248 C8.2181822,25.8019164 6.64257009,22.7837239 6.91497502,21.1194064 C7.18737995,19.4550889 8.72304443,23.3315086 10.3475608,23.0515274 C11.311257,22.8854369 9.92362229,20.0089024 8.63523662,16.8905386 L8.4158,16.3540536 C7.61811707,14.3816337 6.91497502,12.369401 6.91497502,10.9304356 C6.91497502,7.07139208 7.79201403,2.72111325 11.9720772,2.72111325 Z M12.4889601,9.83053156 L11.5684677,9.83053156 L10.313327,11.3216263 L10.313327,11.6536809 L11.2119877,11.9899245 L11.2119877,16.8708177 L10.4437809,16.8708177 L10.4437809,17.7748302 L13.1299937,17.7748302 L13.1299937,16.8708177 L12.4889601,16.8708177 L12.4889601,9.83053156 Z" id="形状结合" fill="#FFFFFF" fill-rule="nonzero"></path>
    </g>
</svg>